<svg width="14" height="13" viewBox="0 0 14 13" fill="none" xmlns="http://www.w3.org/2000/svg">
<path fill-rule="evenodd" clip-rule="evenodd" d="M0.761719 6.44224C0.761719 4.78856 1.41864 3.20261 2.58797 2.03328C3.7573 0.863953 5.34325 0.207031 6.99693 0.207031C8.65061 0.207031 10.2366 0.863953 11.4059 2.03328C12.5752 3.20261 13.2321 4.78856 13.2321 6.44224C13.2321 8.09592 12.5752 9.68187 11.4059 10.8512C10.2366 12.0205 8.65061 12.6774 6.99693 12.6774C5.34325 12.6774 3.7573 12.0205 2.58797 10.8512C1.41864 9.68187 0.761719 8.09592 0.761719 6.44224ZM6.6411 9.11091L10.2309 4.62322L9.58246 4.10445L6.52139 7.92954L4.3532 6.123L3.82113 6.76148L6.6411 9.11091Z" fill="#146BBC"/>
</svg>
