<svg width="140" height="24" viewBox="0 0 140 24" fill="none" xmlns="http://www.w3.org/2000/svg">
<path d="M13.8012 0.91054C13.884 0.91054 14.0122 0.931016 14.015 0.982517C14.0876 2.45899 14.024 4.02326 13.9439 5.48577L13.7351 5.61235L9.5533 5.7138L9.42237 5.50345L9.47511 9.70856C9.63582 9.86306 9.54895 9.92449 9.35101 9.98964L5.2759 9.98902L5.15025 9.77526L5.09813 14.0883C3.69829 14.2255 2.09213 14.2822 0.664683 14.1541C0.664373 10.4352 0.665614 6.7128 0.664062 2.99262C0.812361 1.85183 1.60567 1.05853 2.74676 0.909919C6.43065 0.946528 10.1192 0.863072 13.8015 0.91054H13.8012Z" fill="#383838"/>
<path d="M17.6489 1.12492C18.1022 1.34085 18.2089 1.53662 17.9694 1.71222C18.0529 1.72184 18.1788 1.74914 18.1828 1.80747C18.208 2.1596 18.27 4.74303 18.1828 4.86868C18.1289 4.94655 18.064 5.00147 17.9694 5.02288C18.1363 4.96238 18.3159 5.01791 18.5083 5.18948C19.6872 5.22205 20.8699 5.21337 22.0569 5.16311L22.2418 5.39704C22.8217 7.16297 22.8111 8.25752 22.1351 9.98964L18.835 9.98685C18.6042 9.95985 18.387 9.88912 18.1835 9.77619C16.7318 10.0691 15.256 10.0737 13.8046 9.77619C12.3728 10.0557 10.9088 10.043 9.45929 9.92076C9.46642 8.49145 9.45525 7.01932 9.42578 5.50407L13.8052 5.39797L13.8046 0.911777C15.1179 0.928841 16.3626 0.809396 17.6495 1.12523L17.6489 1.12492Z" fill="#B3B3B3"/>
<path d="M5.36719 14.1545C5.7246 13.794 9.54841 13.8986 9.49939 14.2824C9.49318 14.3311 9.46278 14.3767 9.42555 14.4213C9.47581 14.4161 9.52452 14.4151 9.56795 14.4297C9.74727 14.4899 9.69764 18.0013 9.639 18.1812C9.60518 18.2855 9.56547 18.337 9.42555 18.3733C10.8452 18.3441 12.399 18.3348 13.8897 18.3271L14.3337 18.5365L21.5746 18.6367C21.8401 18.6773 22.1448 18.7406 22.0285 19.0673C21.0555 21.3256 19.2316 22.5849 16.8191 22.9895C12.3093 23.0062 7.79364 23.0683 3.28325 23.0208C3.10269 23.0189 2.80826 23.0891 2.6975 22.9122L3.20879 22.7285C5.28125 22.6826 7.34254 22.6926 9.39235 22.758L9.63962 22.9122C9.55678 22.9122 9.42927 22.892 9.42617 22.8393C9.39359 22.3255 9.33433 19.3093 9.42617 19.0341L9.63962 18.9072C8.20193 18.8526 6.73694 18.8151 5.24402 18.7943L5.04701 18.5334C4.96418 18.5331 4.83791 18.5141 4.83356 18.4608C4.76345 17.643 4.71753 15.524 4.83356 14.762L5.04701 14.6351C3.69743 14.5703 2.31559 14.5523 0.901477 14.5817L0.774896 14.3683C0.70447 14.337 0.706021 14.3013 0.774896 14.2616C2.23058 14.2122 3.6903 14.1766 5.15374 14.1548C5.21393 13.9504 5.307 13.9507 5.36719 14.1548V14.1545Z" fill="#989898"/>
<path d="M0.770957 14.368L4.86282 14.3643C4.93325 14.3857 5.04308 14.6056 5.04308 14.6351V18.5334C6.32254 18.8554 7.88898 18.4636 9.16038 18.6348C9.30154 18.6537 9.63568 18.7716 9.63568 18.9072V22.9122C7.3718 22.789 4.93666 23.0773 2.69356 22.9122C1.73024 22.8412 0.882026 22.2138 0.771267 21.2034C0.659578 18.9317 0.659578 16.6533 0.771267 14.368H0.770957Z" fill="#939393"/>
<path d="M9.42297 5.50293L9.52907 9.77567C10.9516 9.77815 12.3793 9.7704 13.8018 9.77505C14.157 11.1451 14.1164 12.7739 13.8018 14.1539C15.2898 13.8672 16.8 13.8616 18.2874 14.1539C18.2821 14.1036 18.2812 14.0549 18.2958 14.0115C18.3559 13.8322 21.8683 13.8784 22.0473 13.9404L22.2393 14.1539C22.8086 15.797 22.7686 16.8943 22.2393 18.5327L22.0774 18.7403C19.3131 18.646 16.545 18.5548 13.7733 18.4663C13.7112 17.0923 13.6597 15.7228 13.6188 14.3577L13.8018 14.1539L13.5434 14.3683C12.1898 14.4489 10.8396 14.4458 9.49215 14.3593C8.45561 13.7012 6.53921 13.8753 5.36461 14.1542C5.29356 14.1554 5.22221 14.153 5.15116 14.1542C5.10586 12.7277 5.10586 11.268 5.15116 9.77536L9.4239 9.77598L9.42328 5.50324L9.42297 5.50293Z" fill="#A0A0A0"/>
<path d="M13.8047 14.1544C13.8078 14.3108 13.9099 14.5196 13.9155 14.7364C13.9291 15.2719 13.8134 18.3806 14.0333 18.5184L22.2419 18.5332C22.1817 18.7194 22.1051 18.8888 22.0284 19.0672L21.5528 18.7414C18.8472 18.7774 16.1257 18.5916 13.4352 18.5289C12.3056 18.5025 10.8648 18.6645 9.79412 18.5388C9.68646 18.5261 9.42585 18.4901 9.42585 18.3732V14.4215C9.42585 14.4029 9.26111 14.2332 9.21054 14.2096C8.88106 14.0557 5.98706 14.1448 5.36719 14.1547C5.44599 13.9788 5.54403 13.873 5.74352 13.8367C6.24891 13.7446 8.06759 13.7744 8.63131 13.8274C9.07093 13.8687 9.18541 14.1091 9.58315 14.1572C10.7832 14.3024 12.5324 14.1476 13.8047 14.1544Z" fill="#9B9B9B"/>
<path d="M18.1811 9.77519C19.3703 9.77643 20.575 9.73548 21.7639 9.77519C21.9699 9.78202 22.1923 9.66629 22.1327 9.98895C21.8517 10.709 21.5073 11.4 20.965 11.9649C21.5296 12.5969 21.9624 13.3536 22.2398 14.1543H18.2881C18.2053 14.1562 18.0775 14.1395 18.0728 14.0876C18.0018 13.2735 17.8414 10.5688 17.9708 9.90642L18.1811 9.7755V9.77519Z" fill="#AAAAAA"/>
<path d="M22.241 5.39614C21.126 5.25001 19.5 5.59408 18.452 5.39366C18.3124 5.36698 17.9689 5.09241 17.9689 5.02229V1.71132C17.9689 1.60708 17.7201 1.25185 17.6484 1.12402C19.8819 1.67285 21.5331 3.24054 22.241 5.39614Z" fill="#BBBBBB"/>
<path d="M0.773083 14.3678C0.947132 16.5408 0.539776 19.0746 0.773083 21.2032C0.595931 21.0922 0.666667 20.798 0.664496 20.6175C0.638435 18.5003 0.666667 16.3776 0.666357 14.2611C0.697692 14.191 0.733371 14.1922 0.773083 14.2611V14.3678Z" fill="#9B9B9B"/>
<path d="M5.15354 14.1542C3.72515 14.176 2.22914 14.3593 0.774694 14.261H0.667969V14.1542L5.04743 14.1549L5.15354 9.77539V14.1542Z" fill="#939393"/>
<path d="M18.1808 9.77458L18.2876 14.1534C16.794 14.1534 15.2952 14.1615 13.802 14.1534C13.7737 12.6965 13.8228 11.2318 13.802 9.77458C15.2598 9.77955 16.723 9.77334 18.1808 9.77458Z" fill="#A6A6A6"/>
<path d="M38.6771 13.1499C38.4832 13.0422 38.02 12.9889 37.9399 12.8188C40.2032 11.9216 39.9047 8.72543 37.7981 7.83409C37.3346 7.63801 36.5643 7.46769 36.0704 7.4258C34.5129 7.29395 32.7864 7.52353 31.2109 7.4258V18.7468H36.6043C36.9577 18.7468 37.8974 18.5135 38.2582 18.3714C40.488 17.4943 40.8255 14.3428 38.6768 13.1496L38.6771 13.1499ZM33.6672 9.56186C34.2678 9.60778 34.9466 9.49888 35.5361 9.56186C36.6155 9.67727 37.0489 10.0753 36.864 11.2108C36.7849 11.6964 36.0728 12.0184 35.6428 12.0184H33.6669V9.56186H33.6672ZM37.4863 15.6787C37.4106 16.0882 37.1258 16.3076 36.7461 16.4326C36.6533 16.463 36.0071 16.611 35.9633 16.611H33.6672C33.7885 15.98 33.5034 14.6313 33.6672 14.1011C33.7103 13.9618 33.9107 13.9509 34.0354 13.9354C34.4059 13.8901 35.7384 14.004 36.1758 14.049C37.1931 14.1532 37.6827 14.6164 37.4863 15.6787Z" fill="#383838"/>
<path d="M54.6859 7.24166C47.5462 8.0514 48.1788 19.2058 55.8304 18.8518C63.6797 18.4885 63.1042 6.28733 54.6859 7.24166ZM55.9368 16.6093C51.2623 17.0632 51.0005 9.65694 55.3306 9.37244C59.64 9.08919 60.1184 16.2035 55.9368 16.6093Z" fill="#383838"/>
<path d="M81.2473 7.42578L77.0286 12.0184V7.42578H74.6254C74.3877 7.42578 74.572 7.67553 74.572 7.6929V18.4799C74.572 18.4973 74.3877 18.747 74.6254 18.747H77.0286V15.4894C77.0286 15.4044 78.04 14.4151 78.2013 14.2612L81.4608 18.747H84.2912L79.9235 12.4074L84.2912 7.42578H81.2473Z" fill="#383838"/>
<path d="M71.4228 11.0547L72.9523 9.29345C71.6096 7.67085 69.5805 7.00568 67.5006 7.24147C65.2796 7.49339 63.1919 9.30617 62.6642 11.4832C61.1303 17.8122 68.8251 21.4601 72.8558 16.6795L71.3161 15.0104C69.6829 17.2218 65.8908 16.9634 65.1871 14.0886C64.1887 10.0098 68.9017 8.03819 71.4228 11.0547Z" fill="#383838"/>
<path d="M129.365 15.863L125.074 7.44315L123.703 7.42578V18.7467H124.664V9.13463L129.06 17.4477L129.634 17.4725L134.17 9.13463V18.7467H135.131V7.42578L133.76 7.44315L129.365 15.863Z" fill="#383838"/>
<path d="M44.3472 7.42578H41.8906V18.7467H49.1532V16.504H44.3472V7.42578Z" fill="#383838"/>
<path d="M106.722 16.931L99.8911 7.58193C99.566 7.28006 99.0221 7.47676 98.6055 7.42557V18.7465H99.6733V9.24114L99.9312 9.4639L106.563 18.6392C106.838 18.8694 107.43 18.6969 107.79 18.7465V7.42557H106.722V16.931Z" fill="#383838"/>
<path d="M115.455 7.34941C107.304 7.69007 108.646 20.2033 116.89 18.7194C123.744 17.4855 122.808 7.04227 115.455 7.34941ZM118.244 17.0822C114.432 19.5186 109.737 15.5918 111.336 11.3494C111.868 9.93782 113.413 8.61802 114.916 8.41419C120.146 7.70496 122.596 14.2999 118.244 17.0822Z" fill="#383838"/>
<path d="M90.356 7.34986C82.8976 7.66166 83.1809 18.82 90.6436 18.8536C98.4122 18.8886 98.4442 7.01169 90.356 7.34986ZM90.1109 17.7848C84.721 17.2409 84.6356 9.06243 89.926 8.41712C97.1498 7.5357 97.0651 18.4865 90.1109 17.7848Z" fill="#383838"/>
<path d="M139.404 7.42578H138.336V18.7467H139.404V7.42578Z" fill="#383838"/>
</svg>
