<svg width="110" height="20" viewBox="0 0 110 20" fill="none" xmlns="http://www.w3.org/2000/svg">
<path d="M4.70833 12.7514C1.52159 8.45772 6.12252 2.21766 11.3037 4.89998C11.9714 5.2457 13.2102 6.73875 13.6201 6.69983C14.3292 6.6321 15.3436 5.26642 16.1644 5.16433C15.5579 3.46001 13.3588 1.92602 11.6838 1.38875C3.32445 -1.29509 -3.37806 8.17316 1.95778 14.9586C6.76696 21.0743 16.452 18.1458 17.4816 10.6548H13.7965C13.0965 15.091 7.43664 16.4284 4.70781 12.7519L4.70833 12.7514Z" fill="black"/>
<path d="M56.0474 1.25068C54.1955 0.989875 51.2079 1.25068 49.2033 1.25068C49.1755 1.25068 48.8086 1.61459 48.8086 1.64239V17.5766C48.8086 18.0836 52.3608 18.1028 52.4952 17.9699C52.615 17.8511 52.3729 15.4735 52.4922 15.3547C52.6079 15.24 55.1528 15.4124 55.7618 15.334C63.5551 14.3272 63.5788 2.31006 56.0474 1.25068ZM58.0332 8.97064C57.7598 12.0775 55.1224 12.4293 52.4937 12.2216V4.38537C56.0479 3.99618 58.3739 5.10409 58.0332 8.97115V8.97064Z" fill="black"/>
<path d="M82.7652 7.25854C82.0875 7.17261 81.7296 6.67173 80.9932 6.53628C76.5747 5.72405 73.5922 9.68461 74.4585 13.8039C75.1908 17.2853 79.7771 19.6957 82.7627 17.1832C82.4008 18.6489 84.9189 17.724 85.9242 17.9686V1.25098H82.7652V7.25904V7.25854ZM81.8489 14.5777C79.0629 16.5499 75.9404 12.6161 78.3811 10.2219C81.1221 7.53349 84.7273 12.5403 81.8489 14.5777Z" fill="black"/>
<path d="M100.047 6.73128C99.8405 6.85157 99.9376 7.27512 99.7369 7.26754C99.3831 7.25491 98.6427 6.6125 97.8759 6.49928C91.181 5.50864 88.951 15.0891 94.7736 17.6744C96.6634 18.5134 98.208 18.4679 99.8703 17.1836C99.5085 18.6494 102.027 17.7244 103.032 17.969V6.73684C103.032 6.50636 100.693 6.35524 100.048 6.73179L100.047 6.73128ZM98.9565 14.5776C96.1706 16.5498 93.048 12.616 95.4888 10.2218C98.2297 7.5334 101.835 12.5402 98.9565 14.5776Z" fill="black"/>
<path d="M69.6698 6.5375C60.2223 4.93275 59.7881 18.2519 68.4169 18.2519C69.448 18.2519 73.5965 16.9863 73.2867 15.7576C73.2544 15.6297 71.3211 14.2211 71.1654 14.1685C70.6206 13.985 68.8061 15.5458 67.7603 15.094C67.6264 14.5259 68.0818 14.5152 68.3613 14.256C69.0997 13.5721 73.681 10.7169 73.733 10.2711C73.8937 8.89382 70.9799 6.7604 69.6704 6.53801L69.6698 6.5375ZM65.3914 12.7427C65.2706 10.2524 67.2352 8.93678 69.6011 9.87386C69.7755 10.1094 65.7704 13.1379 65.3914 12.7427Z" fill="black"/>
<path d="M27.6164 7.52069C21.581 3.21189 14.8006 11.4423 19.9459 16.5689C25.6978 22.2995 34.6515 12.5437 27.6164 7.52069ZM23.7387 15.044C20.8375 14.6306 20.6834 10.2338 23.1974 9.66524C27.8317 8.61748 27.8559 15.6308 23.7387 15.044Z" fill="black"/>
<path d="M40.5285 6.48915C39.7987 6.60641 39.3812 7.25336 38.9374 7.266C38.7352 7.27156 38.8383 6.85357 38.6286 6.73125C37.7744 6.2334 36.5538 6.48309 35.6445 6.73631V17.9685H38.8035V11.83C38.8035 10.9218 40.341 9.66427 41.3079 9.59402C42.438 9.51264 44.068 10.4088 44.068 11.5687V17.9685H47.227V11.3074C47.227 11.2043 46.6806 9.59099 46.5699 9.34737C45.4858 6.95263 43.0688 6.08127 40.529 6.48915H40.5285Z" fill="black"/>
<path d="M31.1719 6.73623V17.9684H34.3308V6.73623C33.2452 6.37283 32.2555 6.37333 31.1719 6.73623Z" fill="black"/>
<path d="M87.2383 6.73623V17.9684H90.3972V6.73623C89.3116 6.37283 88.3219 6.37333 87.2383 6.73623Z" fill="black"/>
<path d="M109.347 14.5723H104.609V19.013H109.347V14.5723Z" fill="#383838"/>
<path d="M88.4809 1.03541C86.0609 1.54387 86.8924 4.7756 88.9288 4.64419C91.5191 4.47689 90.9879 0.508747 88.4809 1.03541Z" fill="black"/>
<path d="M32.1491 1.03392C30.0652 1.63841 30.7946 5.01571 33.0801 4.6058C35.58 4.15749 34.5504 0.336927 32.1491 1.03392Z" fill="black"/>
</svg>
