<svg width="195" height="24" viewBox="0 0 195 24" fill="none" xmlns="http://www.w3.org/2000/svg">
<path d="M35.1253 5.89699C35.2243 5.91126 36.7806 6.78467 36.8754 6.86345C37.3371 7.24694 37.7738 8.80171 37.6956 9.4254C37.6629 9.687 37.4129 10.5595 37.2973 10.7851C37.2012 10.9724 36.2006 11.6785 36.3409 11.8794C36.3763 11.9303 37.1159 12.2507 37.3986 12.5275C38.6989 13.801 38.6811 16.3041 37.1926 17.3886C36.7981 17.6761 35.2793 18.2005 34.8016 18.2005H27.8405L27.5977 17.9576V5.89699C29.9179 6.13779 32.8859 5.57326 35.1253 5.89699ZM33.6684 8.32546C32.8952 8.18753 31.3874 8.32546 30.5116 8.32546C30.3811 8.32546 30.5431 10.9157 30.6736 10.9157H33.7495C33.7632 10.9157 33.7231 10.6799 33.7968 10.6472C34.5314 10.3205 35.3224 10.0955 34.7288 9.04488C34.5935 8.80557 33.9321 8.37243 33.6687 8.32546H33.6684ZM35.3216 13.713C34.9247 13.1188 31.3838 13.0058 30.7771 13.2047C30.4087 13.3254 30.2381 15.6465 30.9162 15.7723C31.602 15.8992 34.9083 15.827 35.2796 15.28C35.4913 14.9685 35.5282 14.0225 35.3216 13.713Z" fill="black"/>
<path d="M50.1795 5.89746C50.6396 5.98546 50.8623 6.78424 51.1313 7.12314C52.6121 8.98678 54.0806 10.9105 55.5546 12.8163C55.6598 12.9525 55.5513 13.1094 55.9262 13.0206V5.89776H58.8401V17.9581C58.8401 18.5957 56.6224 18.4551 56.2017 18.2093C55.9232 18.0463 55.7219 17.3715 55.5364 17.1331C54.1449 15.3444 52.5187 12.9751 51.0567 11.371C50.8804 11.1774 50.7098 10.8489 50.4217 10.9161V17.9581L50.1789 18.2009H47.7507L47.5078 17.9581V5.89746H50.1795Z" fill="black"/>
<path d="M78.3471 5.89662C78.8775 6.04526 82.9877 12.3184 83.9321 13.0194V5.89662H86.846V18.1189C86.846 18.4819 84.7927 18.4189 84.4208 18.2702L78.9206 11.0348L78.428 10.7533V18.2001H75.9187L75.6758 17.9572V5.89662C76.3952 6.02445 77.7234 5.72211 78.3468 5.89662H78.3471Z" fill="black"/>
<path d="M140.045 6.12495C142.465 7.13302 144.19 10.1742 143.839 12.7849C143.741 13.5126 142.673 15.5502 142.689 15.8305C142.693 15.903 143.769 16.706 143.795 16.7741C143.967 17.2337 143.356 17.6427 143.08 17.9445C143.006 18.0253 143.042 18.2498 142.982 18.3113C142.411 18.8984 141.553 17.3291 140.994 17.2277C140.923 17.2149 140.944 17.4727 140.79 17.5372C137.828 18.7771 134.497 18.8419 132.345 16.1293C128.14 10.8267 133.716 3.4875 140.045 6.12495H140.045ZM139.236 8.06648C133.924 5.52504 130.619 14.0409 136.002 15.9982C136.052 16.0166 136.068 16.2256 136.176 16.2512C136.497 16.3261 137.88 16.3121 138.253 16.2654C138.645 16.2161 139.548 15.9274 139.264 15.4773C139.083 15.1899 137.508 14.3331 137.356 13.9098C137.332 13.842 138.353 13.0795 138.447 12.9674C138.6 12.7858 138.272 12.1975 139.181 12.6981C139.819 13.0495 140.96 15.1185 141.322 13.5097C141.762 11.5583 141.183 8.99845 139.236 8.06678L139.236 8.06648Z" fill="black"/>
<path d="M112.424 5.89746V8.32563H105.787V10.5921H111.615V13.344H105.787V15.6104H112.344C112.711 15.6104 112.711 18.2006 112.344 18.2006H103.278L103.035 17.9578V5.89746H112.424Z" fill="black"/>
<path d="M60.6211 18.2007L65.7884 5.96529C66.0533 5.63442 68.3379 5.62877 68.5697 5.83954C70.2015 9.20979 71.9971 13.3503 73.3877 16.8808C73.5432 17.2883 73.7355 17.7554 73.7338 18.2007H71.0627C70.5859 18.2007 70.0282 15.9595 69.8296 15.4687L64.6659 15.5273L63.535 18.2007H60.6211ZM65.6398 13.0203H68.7157C68.4053 12.3134 68.2175 11.2994 67.7582 10.7889L67.1779 9.29511L65.6401 13.0203H65.6398Z" fill="black"/>
<path d="M179.853 5.8968C180.722 5.99549 182.254 6.94619 182.659 7.78095C182.848 8.17217 182.768 8.40523 182.859 8.68913C182.903 8.82737 183.139 8.81013 183.166 8.92488C183.509 10.3518 182.759 11.9497 181.629 12.8528C181.453 13.2666 180.363 13.2283 180.417 13.588C180.411 14.3 183.608 17.6131 183.333 18.1994C183.244 18.2859 181.153 18.2261 180.856 18.0478C179.93 16.6074 178.747 15.3601 177.991 13.8294H175.401C175.379 13.8294 175.239 14.2123 175.239 14.234V17.9574C175.239 18.4084 172.973 18.1548 172.973 18.0382V5.8968C175.157 6.07724 177.715 5.65362 179.853 5.8968ZM179.691 8.00153C178.614 7.72892 176.447 8.20368 175.239 8.00153V11.8867H179.367C179.919 11.8867 180.873 10.7701 180.895 10.1654C180.92 9.44125 180.488 8.20308 179.691 8.00123V8.00153Z" fill="black"/>
<path d="M100.217 6.93644C100.31 7.01522 100.751 7.41893 100.761 7.4549C100.881 7.86098 99.1285 9.73294 98.8393 9.60928C98.8238 9.60274 98.8414 9.40891 98.7061 9.30308C97.121 8.06075 94.6037 7.77299 93.2689 9.50255C90.9124 12.5559 93.5311 17.0415 97.6222 15.4562C98.0696 15.2828 98.897 14.4412 99.2097 14.5025C99.3108 14.5224 100.631 15.8111 100.69 15.9363C101.045 16.6961 99.3631 17.6364 98.7754 17.9045C95.5333 19.3832 90.9748 17.9141 89.7568 14.4023C87.4645 7.79201 95.3326 2.81973 100.217 6.93644Z" fill="black"/>
<path d="M194.827 5.89746C194.898 5.96851 194.901 7.84018 194.584 7.84018H188.109L187.866 8.08305V10.9161H194.018V13.0206H187.866V16.0153L188.109 16.2582H194.989C194.958 16.6037 195.131 18.2009 194.746 18.2009H185.762V5.89746H194.827Z" fill="black"/>
<path d="M148.364 5.89746V13.4252C148.364 14.1359 149.149 15.5608 149.793 15.9178C151.572 16.9027 154.516 16.0385 154.516 13.7489V5.89746H156.782V13.7489C156.782 14.9808 155.606 16.865 154.565 17.5219C151.027 19.7554 146.098 17.7393 146.098 13.2634V5.89776H148.364V5.89746Z" fill="black"/>
<path d="M165.911 6.64866C167.664 10.0403 169.378 14.0244 170.794 17.5454C170.843 17.6964 170.929 18.137 170.868 18.1991C170.808 18.2613 169.382 18.2372 169.161 18.2075C168.037 18.0567 167.883 15.1904 167.232 15.1128C166.615 15.0394 162.144 15.0043 161.743 15.1149C161.549 15.1681 160.77 17.7936 160.407 18.0496C160.127 18.2461 158.677 18.2913 158.393 18.1239C157.974 17.8775 158.69 17.1539 158.712 17.1004C160.205 13.3383 161.903 9.66961 163.461 5.93787C163.682 5.67983 165.073 5.66437 165.413 5.76753C165.896 5.91468 165.743 6.34068 165.911 6.64896L165.911 6.64866ZM162.612 13.3434C162.745 13.4789 165.886 13.3434 166.416 13.3434C166.434 13.3434 166.74 13.1079 166.578 13.0253L164.713 8.64846C164.071 8.76915 164.298 9.13778 164.104 9.57061C163.884 10.0602 162.422 13.151 162.612 13.3434Z" fill="black"/>
<path d="M7.75707 14.5714C8.27493 15.0367 11.0804 17.9634 11.3253 17.9973C11.7599 18.0576 15.2568 13.8502 15.5523 13.8214C15.8734 13.7902 18.3631 16.1479 18.3589 16.3388C18.3485 16.8307 12.0774 22.5269 11.3268 23.2243L4.28516 16.3382C4.78042 16.1839 6.63514 13.8342 6.81321 13.8223C7.37864 13.7845 7.45177 14.2973 7.75678 14.5717L7.75707 14.5714Z" fill="black"/>
<path d="M11.7893 1.30755C13.9345 3.35996 16.0386 5.39899 18.133 7.50848C18.212 7.62918 18.2308 7.76176 18.2156 7.90297C18.1995 8.05161 16.2342 9.95301 16.1005 10.0208C15.8692 10.1379 15.802 10.1052 15.5713 10.0782C14.9889 10.0101 11.4644 5.68795 11.2501 5.89872C11.2379 5.91061 11.2611 6.07411 11.1166 6.21294C9.85315 7.43 8.61201 8.67173 7.40417 9.94052C7.12948 10.1373 6.89522 10.1052 6.59497 9.99641C6.45763 9.94647 4.53513 8.10839 4.48727 7.97016C4.42246 7.78287 4.41949 7.68031 4.52294 7.50819L11.2507 0.718639C11.413 0.639563 11.6692 1.1928 11.7893 1.30755Z" fill="black"/>
<path d="M128.385 7.61227C128.273 7.79361 127.619 8.81417 127.546 8.82457C127.247 8.86768 125.745 7.79153 125.125 7.68867C123.649 7.44371 121.505 7.9152 122.344 9.8267C122.721 10.6861 125.553 11.0738 126.54 11.4546C128.787 12.3218 129.759 14.4461 128.452 16.6258C126.558 19.4493 121.78 18.3535 119.573 16.5598C119.372 16.2078 120.389 15.0927 120.67 15.0306C121.364 14.8769 121.499 15.4331 121.985 15.6789C123.165 16.277 125.532 16.8657 126.486 15.6661C127.661 14.1887 125.763 13.4496 124.603 13.0679C123.864 12.8248 123.03 12.8268 122.164 12.4317C120.16 11.5182 119.202 9.64149 120.388 7.62446C122.056 4.89603 126.255 5.38357 128.47 7.10719C128.678 7.3682 128.511 7.40804 128.385 7.61227H128.385Z" fill="black"/>
<path d="M44.1092 5.89746V17.9581L43.8664 18.2009H41.4379L41.1953 17.9581V5.89746H44.1092Z" fill="black"/>
<path d="M22.7318 12.1982L20.0792 14.6356C19.6972 13.9949 17.4575 12.4259 17.5496 11.8189L20.0682 9.48552C20.3105 9.46174 22.8002 11.9607 22.7321 12.1982H22.7318Z" fill="black"/>
<path d="M2.93672 9.68199C3.13619 9.81963 5.11042 11.798 5.10031 11.9547C5.07564 12.3394 2.77589 14.6257 2.58623 14.5939C2.33889 14.5523 0.0394425 12.2945 0.106925 11.993L2.49942 9.52918C2.66203 9.44119 2.81157 9.59548 2.93672 9.68199Z" fill="black"/>
<path d="M11.6771 9.6818C11.892 10.0965 13.8451 11.7063 13.8421 11.9566C13.8377 12.3297 11.5228 14.6255 11.3254 14.5979C11.1378 14.5717 8.74203 12.2402 8.80594 11.8183C8.82437 11.6962 9.17814 11.6391 9.31399 11.4964C9.68589 11.1061 9.86753 11.0401 10.1178 10.8049C10.4755 10.4693 11.23 9.17464 11.6768 9.6818H11.6771Z" fill="black"/>
</svg>
