<svg width="256" height="30" viewBox="0 0 256 30" fill="none" xmlns="http://www.w3.org/2000/svg">
<path d="M45.8464 7.13978C45.976 7.15846 48.0132 8.3018 48.1373 8.40492C48.7417 8.90693 49.3134 10.9422 49.211 11.7587C49.1682 12.1011 48.8409 13.2433 48.6895 13.5387C48.5638 13.7838 47.2539 14.7081 47.4376 14.9711C47.4839 15.0377 48.4522 15.4572 48.8222 15.8195C50.5244 17.4866 50.5011 20.7633 48.5526 22.183C48.0361 22.5593 46.048 23.2457 45.4226 23.2457H36.3101L35.9922 22.9278V7.13978C39.0295 7.455 42.9149 6.71599 45.8464 7.13978ZM43.9391 10.3188C42.9269 10.1382 40.9531 10.3188 39.8067 10.3188C39.6358 10.3188 39.8479 13.7095 40.0188 13.7095H44.0454C44.0633 13.7095 44.0107 13.4009 44.1072 13.3581C45.0688 12.9304 46.1044 12.6358 45.3272 11.2605C45.1502 10.9473 44.2843 10.3803 43.9395 10.3188H43.9391ZM46.1032 17.3714C45.5837 16.5935 40.9485 16.4456 40.1542 16.706C39.672 16.864 39.4487 19.9025 40.3363 20.0671C41.2341 20.2333 45.5623 20.1387 46.0483 19.4227C46.3254 19.0148 46.3737 17.7766 46.1032 17.3714Z" fill="black"/>
<path d="M65.5481 7.13965C66.1505 7.25484 66.442 8.3005 66.7942 8.74413C68.7326 11.1837 70.655 13.702 72.5844 16.1968C72.7222 16.3751 72.5802 16.5805 73.0709 16.4642V7.14004H76.8854V22.9277C76.8854 23.7624 73.9823 23.5783 73.4316 23.2565C73.067 23.0432 72.8035 22.1599 72.5607 21.8478C70.7391 19.5062 68.6104 16.4046 66.6965 14.3048C66.4657 14.0514 66.2424 13.6214 65.8653 13.7094V22.9277L65.5473 23.2456H62.3687L62.0508 22.9277V7.13965H65.5481Z" fill="black"/>
<path d="M102.423 7.13945C103.117 7.33402 108.497 15.546 109.734 16.4636V7.13945H113.548V23.1392C113.548 23.6143 110.86 23.5318 110.374 23.3372L103.173 13.8656L102.529 13.4971V23.2454H99.2437L98.9258 22.9275V7.13945C99.8675 7.30678 101.606 6.91101 102.422 7.13945H102.423Z" fill="black"/>
<path d="M183.189 7.43797C186.356 8.75759 188.615 12.7387 188.155 16.1562C188.027 17.1089 186.63 19.7761 186.651 20.1431C186.656 20.2381 188.064 21.2892 188.098 21.3783C188.323 21.9799 187.524 22.5154 187.163 22.9104C187.066 23.0162 187.113 23.31 187.034 23.3906C186.286 24.1592 185.163 22.1048 184.432 21.9721C184.339 21.9554 184.366 22.2928 184.164 22.3772C180.287 24.0004 175.927 24.0852 173.11 20.5342C167.605 13.5928 174.904 3.98539 183.189 7.43797H183.189ZM182.13 9.97954C175.177 6.65266 170.85 17.8004 177.896 20.3626C177.963 20.3867 177.983 20.6603 178.125 20.6938C178.545 20.7918 180.354 20.7735 180.843 20.7124C181.357 20.6478 182.538 20.27 182.167 19.6808C181.929 19.3045 179.868 18.1829 179.669 17.6288C179.637 17.54 180.974 16.5419 181.097 16.3952C181.297 16.1574 180.868 15.3872 182.059 16.0426C182.894 16.5026 184.387 19.2111 184.861 17.105C185.436 14.5506 184.679 11.1995 182.13 9.97993L182.13 9.97954Z" fill="black"/>
<path d="M147.033 7.13965V10.3183H138.345V13.2852H145.974V16.8876H138.345V19.8545H146.927C147.408 19.8545 147.408 23.2452 146.927 23.2452H135.06L134.742 22.9273V7.13965H147.033Z" fill="black"/>
<path d="M79.2188 23.2459L85.983 7.22909C86.3298 6.79596 89.3204 6.78857 89.624 7.06448C91.7601 11.4763 94.1105 16.8965 95.931 21.5181C96.1345 22.0516 96.3863 22.663 96.384 23.2459H92.8874C92.2632 23.2459 91.5332 20.3121 91.2732 19.6696L84.5136 19.7463L83.0332 23.2459H79.2188ZM85.7885 16.4645H89.8151C89.4088 15.5391 89.1628 14.2117 88.5616 13.5435L87.802 11.588L85.7889 16.4645H85.7885Z" fill="black"/>
<path d="M235.3 7.13948C236.437 7.26868 238.443 8.5132 238.972 9.60595C239.221 10.1181 239.116 10.4232 239.235 10.7948C239.293 10.9758 239.601 10.9532 239.637 11.1034C240.085 12.9714 239.104 15.0631 237.624 16.2453C237.394 16.787 235.967 16.7368 236.038 17.2077C236.031 18.1397 240.215 22.4769 239.855 23.2443C239.738 23.3575 237.002 23.2793 236.613 23.0458C235.401 21.1603 233.852 19.5275 232.863 17.5237H229.472C229.444 17.5237 229.26 18.0249 229.26 18.0533V22.9275C229.26 23.5179 226.293 23.1859 226.293 23.0334V7.13948C229.152 7.3757 232.501 6.82116 235.3 7.13948ZM235.088 9.8947C233.678 9.53785 230.841 10.1593 229.26 9.8947V14.9806H234.664C235.386 14.9806 236.636 13.5189 236.663 12.7274C236.696 11.7794 236.131 10.1585 235.088 9.89431V9.8947Z" fill="black"/>
<path d="M131.053 8.49962C131.175 8.60274 131.751 9.13121 131.765 9.1783C131.922 9.70989 129.628 12.1604 129.249 11.9985C129.229 11.9899 129.252 11.7362 129.075 11.5977C127 9.9714 123.705 9.5947 121.957 11.8588C118.873 15.8558 122.301 21.7278 127.656 19.6524C128.242 19.4255 129.325 18.3238 129.734 18.404C129.867 18.4301 131.595 20.1171 131.671 20.2809C132.137 21.2756 129.935 22.5065 129.166 22.8575C124.922 24.7931 118.954 22.8699 117.36 18.2729C114.359 9.6196 124.659 3.1106 131.053 8.49962Z" fill="black"/>
<path d="M254.902 7.13965C254.995 7.23266 254.999 9.68278 254.585 9.68278H246.108L245.79 10.0007V13.7094H253.843V16.4642H245.79V20.3845L246.108 20.7025H255.115C255.073 21.1547 255.3 23.2456 254.797 23.2456H243.035V7.13965H254.902Z" fill="black"/>
<path d="M194.08 7.13965V16.9938C194.08 17.9243 195.107 19.7895 195.951 20.2569C198.28 21.5462 202.133 20.4149 202.133 17.4176V7.13965H205.1V17.4176C205.1 19.0303 203.56 21.4967 202.198 22.3568C197.567 25.2805 191.113 22.6413 191.113 16.7821V7.14004H194.08V7.13965Z" fill="black"/>
<path d="M217.048 8.12395C219.343 12.5638 221.588 17.7793 223.44 22.3884C223.504 22.5861 223.617 23.1628 223.538 23.2442C223.458 23.3255 221.592 23.294 221.302 23.2551C219.832 23.0578 219.63 19.3055 218.778 19.204C217.97 19.1078 212.117 19.0619 211.592 19.2067C211.339 19.2764 210.319 22.7134 209.843 23.0484C209.478 23.3057 207.579 23.3648 207.207 23.1457C206.658 22.8231 207.596 21.8759 207.624 21.8059C209.579 16.8811 211.801 12.0785 213.841 7.19348C214.13 6.85569 215.952 6.83546 216.396 6.97049C217.028 7.16313 216.829 7.72078 217.049 8.12434L217.048 8.12395ZM212.729 16.8877C212.904 17.0652 217.016 16.8877 217.709 16.8877C217.733 16.8877 218.133 16.5795 217.921 16.4713L215.48 10.7418C214.64 10.8998 214.937 11.3823 214.683 11.949C214.395 12.5899 212.482 16.6359 212.729 16.8877Z" fill="black"/>
<path d="M10.0176 18.495C10.6955 19.104 14.368 22.9352 14.6886 22.9796C15.2576 23.0586 19.8352 17.5509 20.222 17.5131C20.6423 17.4723 23.9015 20.5587 23.896 20.8085C23.8824 21.4526 15.6732 28.9092 14.6906 29.8221L5.47266 20.8077C6.12099 20.6057 8.54893 17.5299 8.78203 17.5143C9.5222 17.4649 9.61794 18.1362 10.0172 18.4954L10.0176 18.495Z" fill="black"/>
<path d="M15.2946 1.13158C18.1028 3.81831 20.8572 6.48752 23.5988 9.24897C23.7023 9.40697 23.7268 9.58053 23.707 9.76538C23.686 9.95995 21.1133 12.449 20.9382 12.5377C20.6354 12.691 20.5474 12.6482 20.2455 12.6128C19.4831 12.5237 14.8693 6.86578 14.5887 7.14169C14.5727 7.15726 14.6031 7.3713 14.414 7.55303C12.7601 9.14623 11.1353 10.7717 9.55421 12.4326C9.19463 12.6903 8.88797 12.6482 8.49493 12.5058C8.31514 12.4404 5.79847 10.0343 5.73582 9.85333C5.65098 9.60816 5.64709 9.4739 5.78252 9.24858L14.5895 0.360668C14.802 0.257153 15.1374 0.981371 15.2946 1.13158Z" fill="black"/>
<path d="M167.925 9.38508C167.778 9.62247 166.923 10.9584 166.827 10.9721C166.435 11.0285 164.469 9.61974 163.658 9.4851C161.726 9.16443 158.919 9.78163 160.017 12.2839C160.51 13.4089 164.218 13.9164 165.509 14.4149C168.451 15.5501 169.724 18.331 168.013 21.1843C165.533 24.8805 159.279 23.446 156.389 21.0979C156.127 20.6371 157.458 19.1774 157.826 19.0961C158.734 18.8949 158.911 19.623 159.547 19.9448C161.092 20.7278 164.19 21.4983 165.44 19.9281C166.978 17.994 164.493 17.0265 162.974 16.5269C162.007 16.2085 160.916 16.2113 159.781 15.6941C157.158 14.4982 155.905 12.0415 157.456 9.40104C159.64 5.82937 165.137 6.46759 168.037 8.72391C168.308 9.06559 168.09 9.11773 167.925 9.38508H167.925Z" fill="black"/>
<path d="M57.6036 7.13965V22.9277L57.2856 23.2456H54.1066L53.7891 22.9277V7.13965H57.6036Z" fill="black"/>
<path d="M29.6194 15.3872L26.147 18.5779C25.6469 17.7393 22.715 15.6853 22.8357 14.8906L26.1326 11.8362C26.4497 11.805 29.7089 15.0763 29.6198 15.3872H29.6194Z" fill="black"/>
<path d="M3.70627 12.0947C3.9674 12.2749 6.55177 14.8648 6.53854 15.0698C6.50624 15.5734 3.49574 18.5664 3.24746 18.5248C2.92368 18.4703 -0.0864322 15.5146 0.00190602 15.12L3.13383 11.8947C3.34669 11.7795 3.54244 11.9815 3.70627 12.0947Z" fill="black"/>
<path d="M15.1468 12.0937C15.4282 12.6366 17.9849 14.7439 17.981 15.0716C17.9752 15.5599 14.9449 18.5654 14.6865 18.5292C14.4409 18.4949 11.3047 15.4428 11.3884 14.8906C11.4125 14.7307 11.8756 14.6559 12.0534 14.4691C12.5403 13.9582 12.778 13.8718 13.1057 13.564C13.5739 13.1246 14.5615 11.4298 15.1464 12.0937H15.1468Z" fill="black"/>
</svg>
